REM DIRINDEX 1\2,1\3,1\4,1\5
REM DIRNAME folder01,folder02,folder03,folder04,folder05
TITLE ""
FILE "163.mp3" MP3
  TRACK 01 AUDIO
    TITLE "0:"
    INDEX 01 00:00:00
  TRACK 02 AUDIO
    TITLE "2:cjc046_4777"
    INDEX 01 00:00:13
  TRACK 03 AUDIO
    TITLE "0:"
    INDEX 01 00:01:28
  TRACK 04 AUDIO
    TITLE "3:cjc046_4778"
    INDEX 01 00:01:52
  TRACK 05 AUDIO
    TITLE "0:"
    INDEX 01 00:02:61
  TRACK 06 AUDIO
    TITLE "4:cjc046_4779"
    INDEX 01 00:03:04
  TRACK 07 AUDIO
    TITLE "0:"
    INDEX 01 00:04:19
  TRACK 08 AUDIO
    TITLE "2:cjc046_4780"
    INDEX 01 00:05:26
  TRACK 09 AUDIO
    TITLE "0:"
    INDEX 01 00:06:31
  TRACK 10 AUDIO
    TITLE "3:cjc046_4781"
    INDEX 01 00:06:51
  TRACK 11 AUDIO
    TITLE "0:"
    INDEX 01 00:08:58
  TRACK 12 AUDIO
    TITLE "4:cjc046_4782"
    INDEX 01 00:08:70
  TRACK 13 AUDIO
    TITLE "0:"
    INDEX 01 00:09:73
  TRACK 14 AUDIO
    TITLE "2:cjc046_4783"
    INDEX 01 00:11:05
  TRACK 15 AUDIO
    TITLE "0:"
    INDEX 01 00:12:07
  TRACK 16 AUDIO
    TITLE "3:cjc046_4784"
    INDEX 01 00:12:28
  TRACK 17 AUDIO
    TITLE "0:"
    INDEX 01 00:14:37
  TRACK 18 AUDIO
    TITLE "4:cjc046_4785"
    INDEX 01 00:14:45
  TRACK 19 AUDIO
    TITLE "0:"
    INDEX 01 00:15:46
  TRACK 20 AUDIO
    TITLE "2:cjc046_4786"
    INDEX 01 00:16:57
  TRACK 21 AUDIO
    TITLE "0:"
    INDEX 01 00:17:65
  TRACK 22 AUDIO
    TITLE "3:cjc046_4787"
    INDEX 01 00:18:09
  TRACK 23 AUDIO
    TITLE "0:"
    INDEX 01 00:19:34
  TRACK 24 AUDIO
    TITLE "4:cjc046_4788"
    INDEX 01 00:19:52
  TRACK 25 AUDIO
    TITLE "0:"
    INDEX 01 00:20:59
  TRACK 26 AUDIO
    TITLE "2:cjc046_4789"
    INDEX 01 00:21:68
  TRACK 27 AUDIO
    TITLE "0:"
    INDEX 01 00:23:03
  TRACK 28 AUDIO
    TITLE "3:cjc046_4790"
    INDEX 01 00:23:14
  TRACK 29 AUDIO
    TITLE "0:"
    INDEX 01 00:24:37
  TRACK 30 AUDIO
    TITLE "4:cjc046_4791"
    INDEX 01 00:24:57
  TRACK 31 AUDIO
    TITLE "0:"
    INDEX 01 00:25:64
  TRACK 32 AUDIO
    TITLE "2:cjc046_4792"
    INDEX 01 00:26:73
  TRACK 33 AUDIO
    TITLE "0:"
    INDEX 01 00:28:19
  TRACK 34 AUDIO
    TITLE "3:cjc046_4793"
    INDEX 01 00:28:47
  TRACK 35 AUDIO
    TITLE "0:"
    INDEX 01 00:29:70
  TRACK 36 AUDIO
    TITLE "4:cjc046_4794"
    INDEX 01 00:30:16
  TRACK 37 AUDIO
    TITLE "0:"
    INDEX 01 00:31:37
  TRACK 38 AUDIO
    TITLE "2:cjc046_4795"
    INDEX 01 00:32:52
  TRACK 39 AUDIO
    TITLE "0:"
    INDEX 01 00:33:71
  TRACK 40 AUDIO
    TITLE "3:cjc046_4796"
    INDEX 01 00:34:14
  TRACK 41 AUDIO
    TITLE "0:"
    INDEX 01 00:35:31
  TRACK 42 AUDIO
    TITLE "4:cjc046_4797"
    INDEX 01 00:35:51
  TRACK 43 AUDIO
    TITLE "0:"
    INDEX 01 00:36:70
  TRACK 44 AUDIO
    TITLE "2:cjc046_4798"
    INDEX 01 00:38:02
  TRACK 45 AUDIO
    TITLE "0:"
    INDEX 01 00:39:31
  TRACK 46 AUDIO
    TITLE "3:cjc046_4799"
    INDEX 01 00:39:56
  TRACK 47 AUDIO
    TITLE "0:"
    INDEX 01 00:40:73
  TRACK 48 AUDIO
    TITLE "4:cjc046_4800"
    INDEX 01 00:41:18
  TRACK 49 AUDIO
    TITLE "0:"
    INDEX 01 00:42:49
  TRACK 50 AUDIO
    TITLE "2:cjc046_4801"
    INDEX 01 00:43:62
  TRACK 51 AUDIO
    TITLE "0:"
    INDEX 01 00:44:67
  TRACK 52 AUDIO
    TITLE "3:cjc046_4802"
    INDEX 01 00:45:12
  TRACK 53 AUDIO
    TITLE "0:"
    INDEX 01 00:46:31
  TRACK 54 AUDIO
    TITLE "4:cjc046_4803"
    INDEX 01 00:46:47
  TRACK 55 AUDIO
    TITLE "0:"
    INDEX 01 00:47:52
  TRACK 56 AUDIO
    TITLE "2:cjc046_4804"
    INDEX 01 00:48:57
  TRACK 57 AUDIO
    TITLE "0:"
    INDEX 01 00:49:70
  TRACK 58 AUDIO
    TITLE "3:cjc046_4805"
    INDEX 01 00:50:09
  TRACK 59 AUDIO
    TITLE "0:"
    INDEX 01 00:51:28
  TRACK 60 AUDIO
    TITLE "4:cjc046_4806"
    INDEX 01 00:51:50
  TRACK 61 AUDIO
    TITLE "0:"
    INDEX 01 00:52:65
  TRACK 62 AUDIO
    TITLE "2:cjc046_4807"
    INDEX 01 00:53:72
  TRACK 63 AUDIO
    TITLE "0:"
    INDEX 01 00:55:10
  TRACK 64 AUDIO
    TITLE "3:cjc046_4808"
    INDEX 01 00:55:36
  TRACK 65 AUDIO
    TITLE "0:"
    INDEX 01 00:56:61
  TRACK 66 AUDIO
    TITLE "4:cjc046_4809"
    INDEX 01 00:57:03
  TRACK 67 AUDIO
    TITLE "0:"
    INDEX 01 00:58:17
  TRACK 68 AUDIO
    TITLE "2:cjc046_4810"
    INDEX 01 00:59:36
  TRACK 69 AUDIO
    TITLE "0:"
    INDEX 01 01:00:43
  TRACK 70 AUDIO
    TITLE "3:cjc046_4811"
    INDEX 01 01:00:64
  TRACK 71 AUDIO
    TITLE "0:"
    INDEX 01 01:02:10
  TRACK 72 AUDIO
    TITLE "4:cjc046_4812"
    INDEX 01 01:02:28
  TRACK 73 AUDIO
    TITLE "0:"
    INDEX 01 01:03:37
  TRACK 74 AUDIO
    TITLE "2:cjc046_4813"
    INDEX 01 01:04:47
  TRACK 75 AUDIO
    TITLE "0:"
    INDEX 01 01:05:68
  TRACK 76 AUDIO
    TITLE "3:cjc046_4814"
    INDEX 01 01:06:12
  TRACK 77 AUDIO
    TITLE "0:"
    INDEX 01 01:07:31
  TRACK 78 AUDIO
    TITLE "4:cjc046_4815"
    INDEX 01 01:07:47
  TRACK 79 AUDIO
    TITLE "0:"
    INDEX 01 01:08:68
  TRACK 80 AUDIO
    TITLE "2:cjc046_4816"
    INDEX 01 01:10:02
  TRACK 81 AUDIO
    TITLE "0:"
    INDEX 01 01:11:29
  TRACK 82 AUDIO
    TITLE "3:cjc046_4817"
    INDEX 01 01:11:47
  TRACK 83 AUDIO
    TITLE "0:"
    INDEX 01 01:13:14
  TRACK 84 AUDIO
    TITLE "4:cjc046_4818"
    INDEX 01 01:13:26
  TRACK 85 AUDIO
    TITLE "0:"
    INDEX 01 01:14:55
  TRACK 86 AUDIO
    TITLE "2:cjc046_4819"
    INDEX 01 01:15:60
  TRACK 87 AUDIO
    TITLE "0:"
    INDEX 01 01:16:71
  TRACK 88 AUDIO
    TITLE "3:cjc046_4820"
    INDEX 01 01:17:14
  TRACK 89 AUDIO
    TITLE "0:"
    INDEX 01 01:18:29
  TRACK 90 AUDIO
    TITLE "4:cjc046_4821"
    INDEX 01 01:18:41
  TRACK 91 AUDIO
    TITLE "0:"
    INDEX 01 01:19:52
  TRACK 92 AUDIO
    TITLE "2:cjc046_4822"
    INDEX 01 01:20:57
  TRACK 93 AUDIO
    TITLE "0:"
    INDEX 01 01:21:65
  TRACK 94 AUDIO
    TITLE "3:cjc046_4823"
    INDEX 01 01:22:09
  TRACK 95 AUDIO
    TITLE "0:"
    INDEX 01 01:23:22
  TRACK 96 AUDIO
    TITLE "4:cjc046_4824"
    INDEX 01 01:23:38
  TRACK 97 AUDIO
    TITLE "0:"
    INDEX 01 01:24:43
  TRACK 98 AUDIO
    TITLE "2:cjc046_4825"
    INDEX 01 01:25:53
  TRACK 99 AUDIO
    TITLE "0:"
    INDEX 01 01:26:64
  TRACK 100 AUDIO
    TITLE "3:cjc046_4826"
    INDEX 01 01:27:08
  TRACK 101 AUDIO
    TITLE "0:"
    INDEX 01 01:28:53
  TRACK 102 AUDIO
    TITLE "4:cjc046_4827"
    INDEX 01 01:28:71
  TRACK 103 AUDIO
    TITLE "0:"
    INDEX 01 01:30:07
